<svg width="156" height="24" viewBox="0 0 156 24" fill="none" xmlns="http://www.w3.org/2000/svg">
<path d="M9.27471 6.64453C9.047 7.16145 8.71808 7.67838 8.23735 8.12145C7.22529 9.10607 5.96021 9.49991 4.64453 9.54914L9.57833 14.3491C9.65424 13.0691 10.0338 11.8384 11.0458 10.8538C11.5012 10.4107 12.0326 10.0907 12.5639 9.84453C11.0458 9.30299 9.83135 8.12145 9.27471 6.64453Z" fill="#FF8300"/>
<path d="M8.18505 17.5021C10.0574 15.6806 10.0574 12.7267 8.18505 10.9052C6.31274 9.08368 3.27655 9.08368 1.40424 10.9052C-0.468079 12.7267 -0.468079 15.6806 1.40424 17.5021C3.27655 19.3237 6.31274 19.3237 8.18505 17.5021Z" fill="#FF8300"/>
<path d="M17.8999 1.47553C19.7722 3.29706 19.7722 6.2509 17.8999 8.07243C16.0276 9.89397 12.9914 9.89397 11.1191 8.07243C9.24677 6.2509 9.24677 3.29706 11.1191 1.47553C12.9914 -0.346009 16.0276 -0.346009 17.8999 1.47553Z" fill="#53565A"/>
<path d="M37.3299 1.47553C35.4575 -0.346009 32.4214 -0.346009 30.549 1.47553C29.6382 2.36168 29.1828 3.49398 29.1575 4.62629C29.0816 5.90629 28.702 7.13705 27.69 8.12167C27.2345 8.56474 26.7032 8.90936 26.1719 9.1309C27.7153 9.67243 28.9297 10.854 29.4864 12.3555C29.7141 11.814 30.043 11.3217 30.5237 10.8786C31.5358 9.89397 32.8009 9.50013 34.1166 9.4509C35.3057 9.42628 36.4696 8.95859 37.3552 8.09705C39.2022 6.2509 39.2022 3.29706 37.3299 1.47553ZM35.66 6.44782C35.2045 6.8909 34.572 7.13705 33.9394 7.13705C33.2816 7.13705 32.6744 6.8909 32.2189 6.44782C31.2575 5.51244 31.2575 4.01091 32.2189 3.07552C32.6744 2.63245 33.3069 2.38629 33.9394 2.38629C34.5973 2.38629 35.2045 2.63245 35.66 3.07552C36.1154 3.5186 36.3684 4.13398 36.3684 4.74937C36.3937 5.41398 36.1407 6.00475 35.66 6.44782Z" fill="#00A7CE"/>
<path d="M27.6186 10.9287C29.491 12.7502 29.491 15.704 27.6186 17.5256C25.7463 19.3471 22.7101 19.3471 20.8378 17.5256C18.9655 15.704 18.9655 12.7502 20.8378 10.9287C22.7101 9.10712 25.7463 9.10712 27.6186 10.9287Z" fill="#53565A"/>
<path d="M20.786 8.12038C19.7739 7.13576 19.3691 5.905 19.3185 4.625L14.3594 9.42499C15.6751 9.49884 16.9401 9.86806 17.9522 10.8527C18.9643 11.8373 19.3691 13.0681 19.4197 14.3481L24.3535 9.54807C23.0631 9.49884 21.798 9.10499 20.786 8.12038Z" fill="#53565A"/>
<path d="M78.8806 18.9772C76.4517 18.9772 74.9336 17.5249 74.9336 15.2111V1.00805C74.9336 0.441898 75.3637 0.0234375 75.9457 0.0234375C76.5276 0.0234375 76.9577 0.466514 76.9577 1.00805V5.83266H80.5252C81.0566 5.83266 81.512 6.27573 81.512 6.79265C81.512 7.28496 81.0566 7.72804 80.5252 7.72804H76.9577V15.088C76.9577 16.4419 77.6409 17.0819 79.0831 17.0819C79.6144 17.0819 79.9433 16.9834 80.171 16.9096C80.2975 16.8603 80.3987 16.8357 80.5252 16.8357C81.0313 16.8357 81.4867 17.2788 81.4867 17.7711C81.4867 18.1649 81.259 18.4849 80.8289 18.6326C80.3481 18.7803 79.7156 18.9772 78.8806 18.9772Z" fill="#53565A"/>
<path d="M89.6348 18.9783C87.889 18.9783 85.8649 18.3137 84.4733 17.3044C84.2962 17.1814 84.0938 16.8614 84.0938 16.5414C84.0938 16.0244 84.5492 15.5568 85.1058 15.5568C85.3335 15.5568 85.5612 15.6306 85.7384 15.7537C87.0034 16.6398 88.3191 17.0829 89.7107 17.0829C91.2794 17.0829 92.3674 16.2706 92.3674 15.1383V15.0891C92.3674 14.0306 91.3047 13.5383 89.3059 12.9968L89.2553 12.9721L89.2047 12.9475C87.1805 12.3814 84.6757 11.6675 84.6757 9.23062V9.18139C84.6757 6.99062 86.5986 5.39062 89.2553 5.39062C90.6469 5.39062 92.2155 5.80908 93.5565 6.54754L93.5818 6.57216C93.9108 6.7937 94.0879 7.08908 94.0879 7.4337C94.0879 7.95062 93.6324 8.41831 93.0758 8.41831C92.8734 8.41831 92.671 8.36908 92.5192 8.27062C91.4312 7.65524 90.2926 7.31062 89.2047 7.31062C87.7372 7.31062 86.7251 8.02447 86.7251 9.05831V9.10754C86.7251 10.1414 88.0661 10.5845 89.9637 11.126C91.6336 11.5691 94.4168 12.3321 94.4168 14.966V15.0152C94.3915 17.2798 92.3927 18.9783 89.6348 18.9783Z" fill="#53565A"/>
<path d="M98.7913 18.8307C98.2093 18.8307 97.7539 18.4123 97.7539 17.8461V1.00923C97.7539 0.443076 98.184 0 98.766 0C99.3479 0 99.778 0.443076 99.778 1.00923V17.8215C99.8033 18.4123 99.3732 18.8307 98.7913 18.8307Z" fill="#53565A"/>
<path d="M117.894 19.0025C114.048 19.0025 111.012 16.0241 111.012 12.2087V12.1595C111.012 8.31948 114.048 5.31641 117.944 5.31641C121.79 5.31641 124.826 8.29486 124.826 12.1102V12.1595C124.826 16.0241 121.79 19.0025 117.894 19.0025ZM117.894 7.2364C115.186 7.2364 113.137 9.32871 113.137 12.1349V12.1841C113.137 14.941 115.237 17.1318 117.944 17.1318C120.652 17.1318 122.701 15.0395 122.701 12.2333V12.1841C122.701 9.40255 120.601 7.2364 117.894 7.2364Z" fill="#53565A"/>
<path d="M65.3654 19.0025C61.5955 19.0025 58.7617 16.0733 58.7617 12.1841V12.1349C58.7617 8.31948 61.5702 5.31641 65.163 5.31641C68.7558 5.31641 71.3619 8.17179 71.3619 12.0856C71.3619 12.5779 70.8812 13.0456 70.3498 13.0456H63.4678C62.9112 13.0456 62.5064 12.6518 62.5064 12.1349C62.5064 11.5933 62.9112 11.1995 63.4678 11.1995H69.2113C68.933 9.27948 67.7438 7.21179 65.1124 7.21179C62.9618 7.21179 61.2413 8.88563 60.887 11.2487L60.8365 11.6425C60.7858 12.061 60.7858 12.4302 60.8365 12.7749V12.7995C61.0895 15.3348 62.9618 17.1072 65.3654 17.1072C66.8329 17.1072 68.0474 16.6148 69.186 15.5318C69.3884 15.3348 69.6161 15.261 69.8691 15.261C70.4257 15.261 70.8812 15.6795 70.8812 16.221C70.8812 16.3933 70.8306 16.6641 70.5523 16.9102C69.0595 18.3871 67.5161 19.0025 65.3654 19.0025Z" fill="#53565A"/>
<path d="M128.471 23.9983C127.889 23.9983 127.434 23.5798 127.434 22.989V11.5675C127.434 7.80138 130.419 5.33984 133.961 5.33984C137.807 5.33984 140.843 8.3183 140.843 12.1337V12.1829C140.843 16.0229 137.807 19.026 133.911 19.026C132.165 19.026 130.596 18.4106 129.458 17.2783V22.989C129.458 23.5798 129.053 23.9983 128.471 23.9983ZM129.458 12.7491C129.685 15.2352 131.406 16.9829 133.734 17.106C133.81 17.106 133.911 17.106 133.987 17.106C134.822 17.106 135.606 16.909 136.289 16.5152C136.365 16.466 136.416 16.4414 136.492 16.3921C137.048 16.0229 137.529 15.5552 137.883 14.9398C137.934 14.866 137.959 14.8167 138.01 14.7429C138.086 14.6198 138.161 14.4721 138.212 14.3244C138.49 13.6598 138.642 12.946 138.642 12.2075V12.1583C138.642 11.5675 138.541 10.9768 138.364 10.4352C138.313 10.2875 138.263 10.1398 138.187 9.99214C138.136 9.84445 138.06 9.69676 137.984 9.57368C137.554 8.83522 136.972 8.21984 136.239 7.80138C136.163 7.75215 136.112 7.72753 136.036 7.70291C135.91 7.62907 135.758 7.57984 135.606 7.53061C135.302 7.43215 134.999 7.33368 134.695 7.28445C134.543 7.25984 134.366 7.23522 134.214 7.23522C134.138 7.23522 134.037 7.23522 133.961 7.23522C131.507 7.23522 129.736 8.98291 129.483 11.5675V12.7491H129.458Z" fill="#53565A"/>
<path d="M108.685 18.8293C108.406 18.8293 108.153 18.7309 107.951 18.5339L101.676 12.3555C101.297 11.9863 101.271 11.4201 101.626 11.0263L101.651 10.977L107.369 5.83243C107.546 5.6355 107.774 5.53704 108.027 5.51243C108.305 5.48781 108.558 5.56166 108.761 5.73397C109.191 6.07858 109.241 6.71858 108.887 7.13704L108.837 7.18627L103.776 11.6663L109.368 17.1801C109.57 17.377 109.671 17.6232 109.671 17.8939C109.671 18.1647 109.57 18.4109 109.368 18.5832C109.216 18.7309 108.963 18.8293 108.685 18.8293Z" fill="#53565A"/>
<path d="M54.8188 19.0029C54.2368 19.0029 53.7814 18.5598 53.7814 17.9937V11.1014C53.7814 8.68908 52.4151 7.26139 50.1127 7.26139C47.8102 7.26139 46.444 8.68908 46.444 11.1014V17.9937C46.444 18.5598 45.9885 19.0029 45.4066 19.0029C44.8247 19.0029 44.3945 18.5844 44.3945 17.9937V10.9045C44.3945 7.55677 46.5705 5.39062 49.9103 5.39062H50.2645C53.6296 5.39062 55.7802 7.55677 55.7802 10.9045V17.9937C55.8055 18.5844 55.4007 19.0029 54.8188 19.0029Z" fill="#53565A"/>
<path d="M150.002 19.0025C146.232 19.0025 143.398 16.0733 143.398 12.1841V12.1349C143.398 8.31948 146.207 5.31641 149.8 5.31641C153.393 5.31641 155.999 8.17179 155.999 12.0856C155.999 12.6025 155.543 13.0456 154.987 13.0456H148.079C147.523 13.0456 147.118 12.6518 147.118 12.1349C147.118 11.5933 147.523 11.1995 148.079 11.1995H153.823C153.544 9.27948 152.355 7.21179 149.724 7.21179C147.573 7.21179 145.853 8.88563 145.498 11.2487L145.448 11.6425C145.397 12.061 145.397 12.4302 145.448 12.7749V12.7995C145.701 15.3348 147.573 17.1072 149.977 17.1072C151.444 17.1072 152.659 16.6148 153.797 15.5318C154 15.3348 154.228 15.261 154.481 15.261C155.037 15.261 155.493 15.6795 155.493 16.221C155.493 16.3933 155.442 16.6641 155.164 16.9102C153.696 18.3871 152.153 19.0025 150.002 19.0025Z" fill="#53565A"/>
</svg>
